<svg xmlns="http://www.w3.org/2000/svg" width="10.214" height="13" viewBox="0 0 10.214 13"><g transform="translate(-51.2)"><g transform="translate(51.2)"><g transform="translate(0)"><path d="M60.95,4.643h-.464V4.179a4.179,4.179,0,0,0-8.357,0v.464h-.464a.464.464,0,0,0-.464.464v7.429a.464.464,0,0,0,.464.464H60.95a.464.464,0,0,0,.464-.464V5.107A.464.464,0,0,0,60.95,4.643Zm-7.893-.464a3.25,3.25,0,1,1,6.5,0v.464h-6.5Zm7.429,7.893H52.128v-6.5h8.357Z" transform="translate(-51.2)"/></g></g><g transform="translate(54.915 6.964)"><g transform="translate(0)"><path d="M190.461,256.928a1.392,1.392,0,1,0-1.777,1.773v1.014a.464.464,0,0,0,.929,0V258.7A1.39,1.39,0,0,0,190.461,256.928Zm-1.313.93a.464.464,0,1,1,.464-.464A.465.465,0,0,1,189.148,257.857Z" transform="translate(-187.756 -256)"/></g></g></g></svg>