<svg xmlns="http://www.w3.org/2000/svg" width="13" height="13" viewBox="0 0 13 13"><path d="M11.477,0H1.523A1.525,1.525,0,0,0,0,1.523v9.953A1.525,1.525,0,0,0,1.523,13h9.953A1.525,1.525,0,0,0,13,11.477V1.523A1.525,1.525,0,0,0,11.477,0Zm.508,11.477a.508.508,0,0,1-.508.508H1.523a.508.508,0,0,1-.508-.508V1.523a.508.508,0,0,1,.508-.508h9.953a.508.508,0,0,1,.508.508Z"/><g transform="translate(8.304 3.57)"><path d="M326.488,136a.488.488,0,0,0-.488.488v4.883a.488.488,0,0,0,.977,0v-4.883A.488.488,0,0,0,326.488,136Z" transform="translate(-326 -136)"/></g><g transform="translate(6.012 5.255)"><path d="M236.488,203a.488.488,0,0,0-.488.488v3.247a.488.488,0,0,0,.977,0v-3.247A.488.488,0,0,0,236.488,203Z" transform="translate(-236 -203)"/></g><g transform="translate(3.719 6.899)"><path d="M146.488,269a.488.488,0,0,0-.488.488v1.636a.488.488,0,0,0,.977,0v-1.636A.488.488,0,0,0,146.488,269Z" transform="translate(-146 -269)"/></g></svg>