<svg xmlns="http://www.w3.org/2000/svg" width="15" height="15" viewBox="0 0 15 15"><g transform="translate(7.969)"><path d="M272.469,0A.469.469,0,0,0,272,.469V6.563a.469.469,0,0,0,.469.469h6.094a.469.469,0,0,0,.469-.469A6.57,6.57,0,0,0,272.469,0Zm.469,6.094V.957a5.634,5.634,0,0,1,5.137,5.137Z" transform="translate(-272)"/></g><g transform="translate(0 1.875)"><path d="M12.656,70.094H7.031V64.469A.469.469,0,0,0,6.563,64a6.562,6.562,0,1,0,6.563,6.563A.469.469,0,0,0,12.656,70.094ZM6.563,76.187a5.625,5.625,0,0,1-.469-11.23v5.605a.469.469,0,0,0,.469.469h5.606A5.633,5.633,0,0,1,6.563,76.187Z" transform="translate(0 -64)"/></g><g transform="translate(4 8)"><g transform="translate(0 0)"><rect width="1" height="1" transform="translate(0 0)"/></g></g><g transform="translate(3 8)"><g transform="translate(0 0)"><rect height="1" transform="translate(0 0)"/></g></g><g transform="translate(4 6)"><g transform="translate(0 0)"><rect width="1" height="1" transform="translate(0 0)"/></g></g><g transform="translate(4 10)"><g transform="translate(0)"><rect width="1" height="1"/></g></g><g transform="translate(6 10)"><g transform="translate(0)"><rect width="1" height="1"/></g></g><g transform="translate(8 10)"><g transform="translate(0)"><rect width="1" height="1"/></g></g></svg>