<svg xmlns="http://www.w3.org/2000/svg" width="11.971" height="13.966" viewBox="0 0 11.971 13.966"><defs><style>.a{fill:#0564ac;}</style></defs><g transform="translate(-34.133)"><g transform="translate(34.133)"><g transform="translate(0)"><path class="a" d="M45.605,0H36.128a.5.5,0,0,0-.5.5V2h-1a.5.5,0,0,0-.5.5V13.467a.5.5,0,0,0,.5.5H43.61a.5.5,0,0,0,.5-.5v-.5h1.5a.5.5,0,0,0,.5-.5V.5A.5.5,0,0,0,45.605,0ZM43.111,12.969H35.131V2.993h5.487v2a.5.5,0,0,0,.5.5h2v7.482Zm-1.5-8.479V3.7l.791.791Zm3.492,7.482h-1V4.988a.5.5,0,0,0-.147-.353L41.468,2.141A.5.5,0,0,0,41.116,2H36.627V1h8.479Z" transform="translate(-34.133)"/></g></g><g transform="translate(36.128 6.484)"><g transform="translate(0)"><path class="a" d="M107.887,221.867H102.9a.5.5,0,1,0,0,1h4.988a.5.5,0,1,0,0-1Z" transform="translate(-102.4 -221.867)"/></g></g><g transform="translate(36.128 8.479)"><g transform="translate(0)"><path class="a" d="M107.887,290.133H102.9a.5.5,0,1,0,0,1h4.988a.5.5,0,1,0,0-1Z" transform="translate(-102.4 -290.133)"/></g></g><g transform="translate(36.128 10.475)"><g transform="translate(0)"><path class="a" d="M107.887,358.4H102.9a.5.5,0,1,0,0,1h4.988a.5.5,0,1,0,0-1Z" transform="translate(-102.4 -358.4)"/></g></g></g></svg>