<svg xmlns="http://www.w3.org/2000/svg" width="11.36" height="11.36" viewBox="0 0 11.36 11.36"><g transform="translate(0 4.057)"><path d="M10.954,171.884H4.405a1.615,1.615,0,0,0-3.13,0H.406a.406.406,0,1,0,0,.811h.869a1.615,1.615,0,0,0,3.13,0h6.549a.406.406,0,1,0,0-.811ZM2.84,173.1a.811.811,0,1,1,.811-.811A.811.811,0,0,1,2.84,173.1Z" transform="translate(0 -170.667)"/></g><g transform="translate(0 0)"><g transform="translate(0 0)"><path d="M10.954,1.217H9.679a1.615,1.615,0,0,0-3.13,0H.406a.406.406,0,0,0,0,.811H6.549a1.615,1.615,0,0,0,3.13,0h1.275a.406.406,0,0,0,0-.811ZM8.114,2.434a.811.811,0,1,1,.811-.811A.811.811,0,0,1,8.114,2.434Z" transform="translate(0 0)"/></g></g><g transform="translate(0 8.114)"><path d="M10.954,342.551H8.868a1.615,1.615,0,0,0-3.13,0H.406a.406.406,0,0,0,0,.811H5.737a1.615,1.615,0,0,0,3.13,0h2.086a.406.406,0,0,0,0-.811ZM7.3,343.768a.811.811,0,1,1,.811-.811A.811.811,0,0,1,7.3,343.768Z" transform="translate(0 -341.334)"/></g></svg>