<svg xmlns="http://www.w3.org/2000/svg" width="12" height="11.96" viewBox="0 0 12 11.96"><g transform="translate(0 -0.85)"><g transform="translate(0 0.85)"><g transform="translate(0 0)"><path d="M5.98,11.813H1.5a.5.5,0,0,1-.5-.5V2.345a.5.5,0,0,1,.5-.5H5.98a.5.5,0,0,0,0-1H1.5A1.5,1.5,0,0,0,0,2.345v8.97a1.5,1.5,0,0,0,1.5,1.5H5.98a.5.5,0,1,0,0-1Z" transform="translate(0 -0.85)"/></g></g><g transform="translate(3.987 3.342)"><path d="M177.965,110.3l-3.03-2.99a.5.5,0,0,0-.7.71l2.165,2.137h-5.8a.5.5,0,0,0,0,1h5.8l-2.165,2.137a.5.5,0,1,0,.7.71l3.03-2.99a.5.5,0,0,0,0-.71Z" transform="translate(-170.1 -107.165)"/></g></g></svg>