<svg id="Group_62781" data-name="Group 62781" xmlns="http://www.w3.org/2000/svg" width="16" height="12.187" viewBox="0 0 16 12.187">
  <path id="Path_36516" data-name="Path 36516" d="M2944.682-177.456a13.332,13.332,0,0,1-2.033-1.358,7,7,0,0,1-1.291-1.408,1.882,1.882,0,0,1,.031-2.3,8.832,8.832,0,0,1,5.3-3.4,9.957,9.957,0,0,1,6.1.421.219.219,0,0,0,.277-.065c.525-.52,1.055-1.036,1.583-1.553a.661.661,0,0,1,.687-.172.577.577,0,0,1,.45.526,1.4,1.4,0,0,1-.122.483c-.017.051-.077.09-.119.132-2.387,2.352-4.8,4.68-7.263,6.957-1.332,1.23-2.6,2.53-3.9,3.79a1.014,1.014,0,0,1-.46.252.618.618,0,0,1-.671-.334.632.632,0,0,1,.123-.766c.367-.368.739-.73,1.114-1.091A.969.969,0,0,1,2944.682-177.456Zm2.478-2.5a.911.911,0,0,0-.047-.08,2.316,2.316,0,0,1,1.312-3.617,2.715,2.715,0,0,1,2.031.227c.062.03.176.059.209.029.274-.248.534-.51.817-.787-.127-.04-.213-.075-.3-.1a8.579,8.579,0,0,0-4.87.225,7.145,7.145,0,0,0-3.443,2.354.364.364,0,0,0-.029.486,6.781,6.781,0,0,0,3.086,2.3.214.214,0,0,0,.18-.013C2946.458-179.263,2946.807-179.609,2947.16-179.956Zm1.306-1.281.835-.823A.726.726,0,0,0,2948.465-181.237Z" transform="translate(-2940.981 187.323)" fill="#1c9a5b"/>
  <path id="Path_36517" data-name="Path 36517" d="M2944.615-185.334l.9-.9a6.572,6.572,0,0,1,1.1,1.273,1.447,1.447,0,0,1-.109,1.646,6.632,6.632,0,0,1-3.24,2.441,7.531,7.531,0,0,1-2.954.472c-.155-.007-.31-.036-.465-.055a.345.345,0,0,1-.056-.024l.646-.644c.169-.17.345-.333.5-.511a.551.551,0,0,1,.381-.173,5.743,5.743,0,0,0,3.75-1.839,3.9,3.9,0,0,0,.27-.344.306.306,0,0,0,0-.449C2945.107-184.746,2944.855-185.043,2944.615-185.334Z" transform="translate(-2930.823 191.493)" fill="#1c9a5b"/>
</svg>
