<svg xmlns="http://www.w3.org/2000/svg" width="13" height="15.127" viewBox="0 0 13 15.127"><path d="M13.367,3.162,10.277.127A.443.443,0,0,0,9.966,0H2.153A1.655,1.655,0,0,0,.5,1.654v11.82a1.655,1.655,0,0,0,1.654,1.654h9.693A1.655,1.655,0,0,0,13.5,13.473V3.478a.443.443,0,0,0-.133-.316ZM10.409,1.5l1.564,1.536H10.55a.141.141,0,0,1-.141-.141ZM11.846,14.24H2.153a.768.768,0,0,1-.767-.767V1.654A.768.768,0,0,1,2.153.886h7.37V2.894A1.028,1.028,0,0,0,10.55,3.922h2.063v9.552a.768.768,0,0,1-.767.767Zm0,0" transform="translate(-0.5 0)"/><path d="M104.882,238H98.635a.443.443,0,1,0,0,.886h6.247a.443.443,0,0,0,0-.886Zm0,0" transform="translate(-95.306 -230.969)"/><path d="M98.634,298.886h5.094a.443.443,0,1,0,0-.886H98.634a.443.443,0,1,0,0,.886Zm0,0" transform="translate(-95.305 -289.196)"/><path d="M104.343,358H98.634a.443.443,0,1,0,0,.886h5.708a.443.443,0,1,0,0-.886Zm0,0" transform="translate(-95.305 -347.423)"/></svg>