<svg xmlns="http://www.w3.org/2000/svg" width="11.984" height="13" viewBox="0 0 11.984 13"><path d="M31.477,0H20.508A.508.508,0,0,0,20,.508V5.086a8.55,8.55,0,0,0,5.816,7.883.508.508,0,0,0,.353,0,8.55,8.55,0,0,0,5.816-7.883V.508A.51.51,0,0,0,31.477,0ZM21.016,5.086V1.016h5.458A10.857,10.857,0,0,1,21.1,6.173a6.8,6.8,0,0,1-.088-1.088ZM21.352,7.2c.653-.486,4.427-1.728,6.227-6.181h3.229c-1.963,6.44-7.376,8.382-7.916,8.811A7.283,7.283,0,0,1,21.352,7.2Zm9.617-2.111a7.513,7.513,0,0,1-4.977,6.863,8.413,8.413,0,0,1-2.336-1.384,15.563,15.563,0,0,0,7.313-7.173Z" transform="translate(-20)"/></svg>