<svg xmlns="http://www.w3.org/2000/svg" width="173" height="172.998" viewBox="0 0 173 172.998"><defs><style>.a{fill:#d4e1f4;}.b{fill:#1c9a5b;}</style></defs><g transform="translate(0.006 -0.48)"><path class="a" d="M30.118,105.033a82.529,82.529,0,0,1,114.39-76.085,82.495,82.495,0,1,0-83.932,140.1,82.331,82.331,0,0,1-30.458-64.016Zm0,0" transform="translate(-5.98 -5.976)"/><path class="b" d="M86.5.48a86.506,86.506,0,1,0,61.158,25.348A86.492,86.492,0,0,0,86.5.48Zm0,164.966a78.477,78.477,0,1,1,78.459-78.459A78.56,78.56,0,0,1,86.5,165.446Zm0,0" transform="translate(0)"/><path class="b" d="M187.858,147.769l-51.943,49.65-24.286-21.325a4.011,4.011,0,1,0-5.674,5.672l27.1,24.1a3.942,3.942,0,0,0,2.857,1.166,3.884,3.884,0,0,0,2.776-1.125L193.41,153.6a4.027,4.027,0,0,0-5.553-5.834Zm0,0" transform="translate(-60.235 -87.377)"/></g></svg>