<svg xmlns="http://www.w3.org/2000/svg" width="13" height="13" viewBox="0 0 13 13"><defs><style>.a{fill:#040e19;}</style></defs><path class="a" d="M12.458,0H.542A.542.542,0,0,0,0,.542V12.458A.542.542,0,0,0,.542,13H12.458A.542.542,0,0,0,13,12.458V.542A.542.542,0,0,0,12.458,0Zm-.542,11.917H1.083V1.083H11.917V11.917Z"/><path class="a" d="M151.065,175.325a.542.542,0,0,0,.816.058l3.792-3.792a.542.542,0,0,0-.766-.766l-3.35,3.35-1.25-1.667a.542.542,0,1,0-.867.65Z" transform="translate(-145.54 -166.333)"/></svg>