<svg xmlns="http://www.w3.org/2000/svg" width="12" height="12" viewBox="0 0 12 12"><defs><style>.a{fill:#146db1;}</style></defs><path class="a" d="M414.917,376.819a.469.469,0,0,0-.656.1c-.085.114-.176.226-.27.333a.469.469,0,1,0,.7.621c.112-.126.219-.259.32-.394A.469.469,0,0,0,414.917,376.819Z" transform="translate(-404.173 -367.897)"/><path class="a" d="M463.2,286.435a.469.469,0,0,0-.558.358c-.03.139-.067.279-.109.414a.469.469,0,1,0,.9.277c.05-.161.093-.327.129-.492A.469.469,0,0,0,463.2,286.435Z" transform="translate(-451.675 -279.711)"/><path class="a" d="M334.685,442.253c-.124.069-.253.134-.383.193a.469.469,0,1,0,.386.854c.154-.069.307-.146.454-.229a.469.469,0,0,0-.457-.819Z" transform="translate(-326.197 -431.829)"/><path class="a" d="M158.66,76.469v3.556l-1.719,1.719a.469.469,0,0,0,.663.663l1.856-1.856a.469.469,0,0,0,.137-.331v-3.75a.469.469,0,0,0-.937,0Z" transform="translate(-153.128 -74.219)"/><path class="a" d="M11.531,1.008a.469.469,0,0,0-.469.469v1.3A6,6,0,1,0,6,12h.023c.169,0,.34-.007.507-.021a.469.469,0,1,0-.078-.934c-.142.012-.286.018-.429.018H6a5.063,5.063,0,1,1,4.358-7.641H9.069a.469.469,0,1,0,0,.938H10.5a1.491,1.491,0,0,0,.78-.219.468.468,0,0,0,.042-.027A1.5,1.5,0,0,0,12,2.859V1.477A.469.469,0,0,0,11.531,1.008Z"/></svg>